<?xml version="1.0" encoding="UTF-8"?>
<svg width="158px" height="28px" viewBox="0 0 158 28" version="1.1" xmlns="http://www.w3.org/2000/svg" xmlns:xlink="http://www.w3.org/1999/xlink">
    <!-- Generator: Sketch 48.2 (47327) - http://www.bohemiancoding.com/sketch -->
    <title>logo</title>
    <desc>Created with Sketch.</desc>
    <defs></defs>
    <g id="Home" stroke="none" stroke-width="1" fill="none" fill-rule="evenodd" transform="translate(-100.000000, -40.000000)">
        <g id="1" transform="translate(100.000000, 40.000000)" fill="#000000">
            <g id="logo">
                <path d="M151.7309,16.6221 L152.1469,16.6221 C152.1909,16.2931 152.2299,15.9571 152.2639,15.6151 C152.2989,15.2721 152.3339,14.9241 152.3689,14.5681 L154.1749,14.5681 C154.1399,14.9331 154.0989,15.2831 154.0519,15.6211 C154.0039,15.9601 153.9459,16.2931 153.8769,16.6221 L154.5399,16.6221 L154.5399,16.3231 L156.0989,16.3231 L156.0989,20.9651 L156.9439,18.4941 L156.9439,21.0821 L157.4129,21.5891 C157.2649,21.7621 157.0959,21.9221 156.9059,22.0691 C156.7139,22.2171 156.5059,22.2911 156.2819,22.2911 L155.8269,22.2911 C155.5749,22.2911 155.3669,22.2541 155.2029,22.1801 C155.0379,22.1061 154.9059,22.0051 154.8059,21.8751 C154.7069,21.7441 154.6369,21.5951 154.5979,21.4261 C154.5589,21.2571 154.5399,21.0821 154.5399,20.8991 L154.5399,16.8831 L153.8109,16.8831 C153.6719,17.5411 153.4819,18.1701 153.2399,18.7681 C153.7079,19.0711 154.1319,19.4351 154.5129,19.8591 L153.3429,21.0171 L152.6549,20.0161 C152.4809,20.3361 152.2929,20.6421 152.0879,20.9321 C151.8849,21.2231 151.6699,21.5021 151.4459,21.7701 L152.3549,21.9131 C152.3119,22.0871 152.2689,22.2541 152.2249,22.4141 C152.1819,22.5741 152.1339,22.7281 152.0829,22.8761 L153.9799,22.8761 L153.9799,22.5371 L155.7489,22.5371 L155.7489,25.8401 C155.7489,26.0731 155.7239,26.2901 155.6769,26.4891 C155.6289,26.6881 155.5409,26.8601 155.4109,27.0031 C155.2809,27.1461 155.0999,27.2631 154.8709,27.3541 C154.6409,27.4451 154.3439,27.4951 153.9799,27.5041 L153.9799,26.7501 L152.5109,25.7871 L153.9799,25.7871 L153.9799,23.1361 L152.0039,23.1361 C151.8049,23.7081 151.5799,24.2241 151.3289,24.6831 C151.0769,25.1421 150.7799,25.5491 150.4379,25.9041 C150.0949,26.2601 149.7039,26.5691 149.2609,26.8341 C148.8189,27.0991 148.3169,27.3211 147.7529,27.5041 C148.1869,26.9581 148.6089,26.3101 149.0209,25.5601 C149.4319,24.8101 149.7939,24.0021 150.1059,23.1361 L147.8179,23.1361 L147.8179,22.8761 L150.1979,22.8761 C150.3349,22.4761 150.4659,22.0601 150.5869,21.6281 L151.0679,21.7051 C151.2149,21.2121 151.3499,20.7221 151.4709,20.2361 C151.5919,19.7511 151.7009,19.2621 151.7959,18.7681 L151.2109,17.8961 C151.3329,17.9321 151.4519,17.9641 151.5689,17.9941 C151.6859,18.0241 151.7999,18.0611 151.9139,18.1041 C151.9569,17.9051 151.9919,17.7041 152.0169,17.5001 C152.0429,17.2971 152.0739,17.0911 152.1079,16.8831 L151.7309,16.8831 L151.7309,16.6221 Z M147.2859,16.6481 L148.8969,16.6481 L148.8969,14.5681 L150.4189,14.5681 L150.4189,16.6481 L151.5099,16.6481 L151.5099,16.9081 L150.4189,16.9081 L150.4189,18.3641 L151.1209,18.3001 L150.4189,18.6891 L150.4189,20.8211 C150.4189,21.0381 150.3989,21.2371 150.3599,21.4201 C150.3209,21.6011 150.2449,21.7601 150.1319,21.8941 C150.0199,22.0281 149.8639,22.1371 149.6649,22.2191 C149.4649,22.3021 149.2099,22.3471 148.8969,22.3551 L148.8969,21.6671 L147.6239,20.7691 L148.8969,20.7691 L148.8969,19.5211 L147.5719,20.2501 L147.1559,18.6111 L148.8969,18.4811 L148.8969,16.9081 L147.2859,16.9081 L147.2859,16.6481 Z" id="Fill-14"></path>
                <path d="M147.3637,4.5596 L151.1207,4.5596 C151.1547,4.2646 151.1807,3.9726 151.1987,3.6816 C151.2157,3.3916 151.2237,3.0996 151.2237,2.8046 L151.2237,0.9716 L153.0837,0.9716 L153.0837,2.8046 C153.0837,3.3936 153.0567,3.9796 153.0057,4.5596 L157.1137,4.5596 L157.1137,4.8196 L152.9787,4.8196 C152.9787,4.8456 152.9767,4.8736 152.9727,4.9046 C152.9677,4.9346 152.9667,4.9626 152.9667,4.9886 C153.2087,5.5516 153.4887,6.1306 153.8047,6.7236 C154.1207,7.3176 154.4617,7.9096 154.8257,8.4986 C155.1887,9.0876 155.5707,9.6626 155.9687,10.2206 C156.3677,10.7806 156.7797,11.3066 157.2047,11.8006 L155.6047,13.1916 C155.2587,12.7496 154.9307,12.2686 154.6237,11.7486 C154.3157,11.2286 154.0407,10.6616 153.7987,10.0456 C153.5547,9.4306 153.3517,8.7626 153.1867,8.0436 C153.0227,7.3246 152.9147,6.5396 152.8627,5.6906 C152.7407,6.4106 152.5607,7.1206 152.3227,7.8226 C152.0847,8.5246 151.7607,9.2006 151.3537,9.8506 C150.9467,10.5006 150.4467,11.1146 149.8527,11.6906 C149.2597,12.2666 148.5467,12.7886 147.7147,13.2566 C148.7107,11.8006 149.4797,10.3706 150.0217,8.9666 C150.5627,7.5626 150.9207,6.1806 151.0937,4.8196 L147.3637,4.8196 L147.3637,4.5596 Z" id="Fill-12"></path>
                <path d="M119.0882,23.8657 L125.7962,23.8657 C131.1012,23.8657 135.1562,19.9267 135.1562,14.3887 C135.1562,8.8107 130.9832,4.8327 125.6012,4.8327 L119.0882,4.8327 L119.0882,23.8657 Z M125.6792,0.6987 C133.8692,0.6987 139.7982,6.4317 139.7982,14.3497 C139.7982,22.2277 133.8302,27.9997 125.5632,27.9997 L114.4852,27.9997 L114.4852,0.6987 L125.6792,0.6987 Z" id="Fill-9"></path>
                <polygon id="Fill-7" points="102.7483 28 88.2003 8.421 88.2003 28 83.5983 28 83.5983 0.699 88.1223 0.699 102.7483 20.317 102.7483 0.699 107.2723 0.699 107.2723 28"></polygon>
                <polygon id="Fill-5" points="61.6169 4.833 61.6169 12.205 74.9549 12.205 74.9549 16.338 61.6169 16.338 61.6169 23.866 76.9829 23.866 76.9829 28 57.0139 28 57.0139 0.699 76.5149 0.699 76.5149 4.833"></polygon>
                <path d="M38.8942,15.6367 C43.1062,15.6367 45.5242,13.8427 45.5242,10.1367 C45.5242,6.5497 43.1062,4.8327 38.8942,4.8327 L32.4202,4.8327 L32.4202,15.6367 L38.8942,15.6367 Z M40.1422,19.7317 C39.7522,19.7707 39.3232,19.7707 38.8942,19.7707 L32.4202,19.7707 L32.4202,27.9997 L27.8182,27.9997 L27.8182,0.6987 L38.8942,0.6987 C45.8752,0.6987 49.8932,4.0927 49.8932,10.0207 C49.8932,14.3887 47.8642,17.4697 44.2372,18.8737 L50.3602,27.9997 L45.1342,27.9997 L40.1422,19.7317 Z" id="Fill-2"></path>
                <polygon id="Fill-1" points="0 0.6985 0 4.8335 8.619 4.8335 8.619 27.9995 13.221 27.9995 13.221 4.8335 21.88 4.8335 21.88 0.6985"></polygon>
            </g>
        </g>
    </g>
</svg>